RBDS010runT35_grf
version=1
nRows=27
nColumns=19
inDegrees=no
endheader
time	ground_force_r_vx	ground_force_r_vy	ground_force_r_vz	ground_force_r_px	ground_force_r_py	ground_force_r_pz	ground_force_r_mx	ground_force_r_my	ground_force_r_mz	ground_force_l_vx	ground_force_l_vy	ground_force_l_vz	ground_force_l_px	ground_force_l_py	ground_force_l_pz	ground_force_l_mx	ground_force_l_my	ground_force_l_mz
      7.49900000	      0.00000000	      0.00000000	      0.00000000	      0.00000000	      0.00000000	      0.00000000	      0.00000000	      0.00000000	      0.00000000	   -150.11525550	   1344.38914742	      1.15357814	      2.37976555	      0.00000000	      0.94935080	      0.00000000	     24.56457405	      0.00000000
      7.50000000	      0.00000000	      0.00000000	      0.00000000	      0.00000000	      0.00000000	      0.00000000	      0.00000000	      0.00000000	      0.00000000	   -147.95063647	   1351.03759388	      1.28963037	      2.37688400	      0.00000000	      0.94921948	      0.00000000	     24.90003896	      0.00000000
      7.50100000	      0.00000000	      0.00000000	      0.00000000	      0.00000000	      0.00000000	      0.00000000	      0.00000000	      0.00000000	      0.00000000	   -145.26570281	   1357.10309858	      1.42922410	      2.37391398	      0.00000000	      0.94905941	      0.00000000	     25.22878882	      0.00000000
      7.50200000	      0.00000000	      0.00000000	      0.00000000	      0.00000000	      0.00000000	      0.00000000	      0.00000000	      0.00000000	      0.00000000	   -142.58076914	   1363.16860328	      1.56881784	      2.37094395	      0.00000000	      0.94889935	      0.00000000	     25.55753868	      0.00000000
      7.50300000	      0.00000000	      0.00000000	      0.00000000	      0.00000000	      0.00000000	      0.00000000	      0.00000000	      0.00000000	      0.00000000	   -139.89583548	   1369.23410798	      1.70841157	      2.36797393	      0.00000000	      0.94873929	      0.00000000	     25.88628854	      0.00000000
      7.50400000	      0.00000000	      0.00000000	      0.00000000	      0.00000000	      0.00000000	      0.00000000	      0.00000000	      0.00000000	      0.00000000	   -136.87092084	   1374.92806304	      1.84188075	      2.36494519	      0.00000000	      0.94856769	      0.00000000	     26.20664581	      0.00000000
      7.50500000	      0.00000000	      0.00000000	      0.00000000	      0.00000000	      0.00000000	      0.00000000	      0.00000000	      0.00000000	      0.00000000	   -133.67601571	   1380.43624327	      1.97228765	      2.36188711	      0.00000000	      0.94839033	      0.00000000	     26.52280679	      0.00000000
      7.50600000	      0.00000000	      0.00000000	      0.00000000	      0.00000000	      0.00000000	      0.00000000	      0.00000000	      0.00000000	      0.00000000	   -130.48111057	   1385.94442350	      2.10269455	      2.35882902	      0.00000000	      0.94821297	      0.00000000	     26.83896777	      0.00000000
      7.50700000	      0.00000000	      0.00000000	      0.00000000	      0.00000000	      0.00000000	      0.00000000	      0.00000000	      0.00000000	      0.00000000	   -127.12313485	   1391.26820086	      2.22565862	      2.35574247	      0.00000000	      0.94803338	      0.00000000	     27.14903616	      0.00000000
      7.50800000	      0.00000000	      0.00000000	      0.00000000	      0.00000000	      0.00000000	      0.00000000	      0.00000000	      0.00000000	      0.00000000	   -123.43901796	   1396.22317249	      2.33373703	      2.35259900	      0.00000000	      0.94784931	     -0.00000000	     27.44691939	      0.00000000
      7.50900000	      0.00000000	      0.00000000	      0.00000000	      0.00000000	      0.00000000	      0.00000000	      0.00000000	      0.00000000	      0.00000000	   -119.75490107	   1401.17814411	      2.44181544	      2.34945553	      0.00000000	      0.94766524	     -0.00000000	     27.74480263	      0.00000000
      7.51000000	      0.00000000	      0.00000000	      0.00000000	      0.00000000	      0.00000000	      0.00000000	      0.00000000	      0.00000000	      0.00000000	   -116.07078418	   1406.13311573	      2.54989385	      2.34631206	      0.00000000	      0.94748118	     -0.00000000	     28.04268586	      0.00000000
      7.51100000	      0.00000000	      0.00000000	      0.00000000	      0.00000000	      0.00000000	      0.00000000	      0.00000000	      0.00000000	      0.00000000	   -111.92814116	   1410.51925749	      2.62318644	      2.34308805	      0.00000000	      0.94729996	     -0.00000000	     28.31703460	      0.00000000
      7.51200000	      0.00000000	      0.00000000	      0.00000000	      0.00000000	      0.00000000	      0.00000000	      0.00000000	      0.00000000	      0.00000000	   -107.78549815	   1414.90539926	      2.69647902	      2.33986405	      0.00000000	      0.94711875	     -0.00000000	     28.59138334	      0.00000000
      7.51300000	      0.00000000	      0.00000000	      0.00000000	      0.00000000	      0.00000000	      0.00000000	      0.00000000	      0.00000000	      0.00000000	   -103.64285514	   1419.29154103	      2.76977161	      2.33664004	      0.00000000	      0.94693753	     -0.00000000	     28.86573208	      0.00000000
      7.51400000	      0.00000000	      0.00000000	      0.00000000	      0.00000000	      0.00000000	      0.00000000	      0.00000000	      0.00000000	      0.00000000	    -99.22107554	   1423.27652693	      2.81264588	      2.33336690	      0.00000000	      0.94676381	     -0.00000000	     29.12131313	      0.00000000
      7.51500000	      0.00000000	      0.00000000	      0.00000000	      0.00000000	      0.00000000	      0.00000000	      0.00000000	      0.00000000	      0.00000000	    -94.65972764	   1427.06093490	      2.84031100	      2.33006920	      0.00000000	      0.94659383	     -0.00000000	     29.36751034	      0.00000000
      7.51600000	      0.00000000	      0.00000000	      0.00000000	      0.00000000	      0.00000000	      0.00000000	      0.00000000	      0.00000000	      0.00000000	    -90.09837974	   1430.84534288	      2.86797611	      2.32677149	      0.00000000	      0.94642386	     -0.00000000	     29.61370755	      0.00000000
      7.51700000	      0.00000000	      0.00000000	      0.00000000	      0.00000000	      0.00000000	      0.00000000	      0.00000000	      0.00000000	      0.00000000	    -85.41343924	   1434.41342489	      2.87759751	      2.32345207	      0.00000000	      0.94626000	     -0.00000000	     29.84924882	      0.00000000
      7.51800000	      0.00000000	      0.00000000	      0.00000000	      0.00000000	      0.00000000	      0.00000000	      0.00000000	      0.00000000	      0.00000000	    -80.48131352	   1437.54885498	      2.85113148	      2.32008921	      0.00000000	      0.94610839	     -0.00000000	     30.06347821	      0.00000000
      7.51900000	      0.00000000	      0.00000000	      0.00000000	      0.00000000	      0.00000000	      0.00000000	      0.00000000	      0.00000000	      0.00000000	    -75.54918780	   1440.68428507	      2.82466545	      2.31672635	      0.00000000	      0.94595678	     -0.00000000	     30.27770760	      0.00000000
      7.52000000	      0.00000000	      0.00000000	      0.00000000	      0.00000000	      0.00000000	      0.00000000	      0.00000000	      0.00000000	      0.00000000	    -70.61706208	   1443.81971516	      2.79819942	      2.31336349	      0.00000000	      0.94580517	     -0.00000000	     30.49193699	      0.00000000
      7.52100000	      0.00000000	      0.00000000	      0.00000000	      0.00000000	      0.00000000	      0.00000000	      0.00000000	      0.00000000	      0.00000000	    -65.36898690	   1446.24782315	      2.71192489	      2.30994539	      0.00000000	      0.94567775	     -0.00000000	     30.67129406	      0.00000000
      7.52200000	      0.00000000	      0.00000000	      0.00000000	      0.00000000	      0.00000000	      0.00000000	      0.00000000	      0.00000000	      0.00000000	    -60.12091173	   1448.67593115	      2.62565036	      2.30652729	      0.00000000	      0.94555032	     -0.00000000	     30.85065112	      0.00000000
      7.52300000	      0.00000000	      0.00000000	      0.00000000	      0.00000000	      0.00000000	      0.00000000	      0.00000000	      0.00000000	      0.00000000	    -54.87283656	   1451.10403914	      2.53937584	      2.30310918	      0.00000000	      0.94542290	     -0.00000000	     31.03000819	      0.00000000
      7.52400000	      0.00000000	      0.00000000	      0.00000000	      0.00000000	      0.00000000	      0.00000000	      0.00000000	      0.00000000	      0.00000000	    -49.45440508	   1453.01654797	      2.41149206	      2.29966149	      0.00000000	      0.94531460	     -0.00000000	     31.18482897	      0.00000000
      7.52500000	      0.00000000	      0.00000000	      0.00000000	      0.00000000	      0.00000000	      0.00000000	      0.00000000	      0.00000000	      0.00000000	    -43.95079544	   1454.67125721	      2.26280366	      2.29619901	      0.00000000	      0.94521587	     -0.00000000	     31.32738162	      0.00000000
